# xmcd
#
# Track frame offsets:
#        150
#        14840
#        30442
#        46116
#        61542
#        78929
#        94978
#        108706
#        127459
#        142060
#        157853
#        177184
#        196685
#        216686
#        234062
#
# Disc length: 3335 seconds
#
# Revision: 0
# Processed by: cddbd v1.5.2PL0 Copyright (c) Steve Scherf et al.
# Submitted via: CDGFix 3.8
#
DISCID=ca0d050f
DTITLE=Various Artist - CB80158
DYEAR=1900
DGENRE=Karaoke
TTITLE0=Tracy Lawrence - Time Marches On
TTITLE1=Jo Dee Messina - Heads Carolina, Tails California
TTITLE2=George Strait - Carried Away
TTITLE3=Terri Clark - Poor Poor Pitiful Me
TTITLE4=Paul Brandt - I Do
TTITLE5=Patty Loveless - You Can Feel Bad
TTITLE6=Daryle Singletary - Too Much Fun
TTITLE7=Terri Clark - If I Were You
TTITLE8=Trace Adkins - Every Light In The House Is On
TTITLE9=John Berry - Change My Mind
TTITLE10=Shania Twain - Home Ain't Where The Heart Is Anymore
TTITLE11=John Michael Montgomery - Long As I Live
TTITLE12=Patty Loveless - Lonely Too Long
TTITLE13=Kenny Chesney - Me And You
TTITLE14=Mindy McCready - Ten Thousand Angels
EXTD=
EXTT0=
EXTT1=
EXTT2=
EXTT3=
EXTT4=
EXTT5=
EXTT6=
EXTT7=
EXTT8=
EXTT9=
EXTT10=
EXTT11=
EXTT12=
EXTT13=
EXTT14=
PLAYORDER=
